<svg width="425" height="36" viewBox="0 0 425 36" fill="none" xmlns="http://www.w3.org/2000/svg">
<path d="M25.688 17.672H32.792V31.304C30.968 32.68 28.856 33.736 26.456 34.472C24.056 35.208 21.64 35.576 19.208 35.576C15.72 35.576 12.584 34.84 9.8 33.368C7.016 31.864 4.824 29.8 3.224 27.176C1.656 24.52 0.872 21.528 0.872 18.2C0.872 14.872 1.656 11.896 3.224 9.272C4.824 6.616 7.032 4.552 9.848 3.08C12.664 1.576 15.832 0.823999 19.352 0.823999C22.296 0.823999 24.968 1.32 27.368 2.312C29.768 3.304 31.784 4.744 33.416 6.632L28.424 11.24C26.024 8.712 23.128 7.448 19.736 7.448C17.592 7.448 15.688 7.896 14.024 8.792C12.36 9.688 11.064 10.952 10.136 12.584C9.208 14.216 8.744 16.088 8.744 18.2C8.744 20.28 9.208 22.136 10.136 23.768C11.064 25.4 12.344 26.68 13.976 27.608C15.64 28.504 17.528 28.952 19.64 28.952C21.88 28.952 23.896 28.472 25.688 27.512V17.672ZM62.1433 27.8H46.5433L43.5673 35H35.5992L50.5753 1.4H58.2553L73.2793 35H65.1193L62.1433 27.8ZM59.6953 21.896L54.3673 9.032L49.0393 21.896H59.6953ZM107.341 35L107.293 14.84L97.4053 31.448H93.9013L84.0613 15.272V35H76.7653V1.4H83.1973L95.7733 22.28L108.157 1.4H114.541L114.637 35H107.341ZM148.625 28.76V35H122.609V1.4H148.001V7.64H130.337V14.936H145.937V20.984H130.337V28.76H148.625ZM176.22 35L169.74 25.64H169.356H162.588V35H154.812V1.4H169.356C172.332 1.4 174.908 1.896 177.084 2.888C179.292 3.88 180.988 5.288 182.172 7.112C183.356 8.936 183.948 11.096 183.948 13.592C183.948 16.088 183.34 18.248 182.124 20.072C180.94 21.864 179.244 23.24 177.036 24.2L184.572 35H176.22ZM176.076 13.592C176.076 11.704 175.468 10.264 174.252 9.272C173.036 8.248 171.26 7.736 168.924 7.736H162.588V19.448H168.924C171.26 19.448 173.036 18.936 174.252 17.912C175.468 16.888 176.076 15.448 176.076 13.592ZM201.149 35.576C198.493 35.576 195.917 35.224 193.421 34.52C190.957 33.784 188.973 32.84 187.469 31.688L190.109 25.832C191.549 26.888 193.261 27.736 195.245 28.376C197.229 29.016 199.213 29.336 201.197 29.336C203.405 29.336 205.037 29.016 206.093 28.376C207.149 27.704 207.677 26.824 207.677 25.736C207.677 24.936 207.357 24.28 206.717 23.768C206.109 23.224 205.309 22.792 204.317 22.472C203.357 22.152 202.045 21.8 200.381 21.416C197.821 20.808 195.725 20.2 194.093 19.592C192.461 18.984 191.053 18.008 189.869 16.664C188.717 15.32 188.141 13.528 188.141 11.288C188.141 9.336 188.669 7.576 189.725 6.008C190.781 4.408 192.365 3.144 194.477 2.216C196.621 1.288 199.229 0.823999 202.301 0.823999C204.445 0.823999 206.541 1.08 208.589 1.592C210.637 2.104 212.429 2.84 213.965 3.8L211.565 9.704C208.461 7.944 205.357 7.064 202.253 7.064C200.077 7.064 198.461 7.416 197.405 8.12C196.381 8.824 195.869 9.752 195.869 10.904C195.869 12.056 196.461 12.92 197.645 13.496C198.861 14.04 200.701 14.584 203.165 15.128C205.725 15.736 207.821 16.344 209.453 16.952C211.085 17.56 212.477 18.52 213.629 19.832C214.813 21.144 215.405 22.92 215.405 25.16C215.405 27.08 214.861 28.84 213.773 30.44C212.717 32.008 211.117 33.256 208.973 34.184C206.829 35.112 204.221 35.576 201.149 35.576ZM250.392 35.576C246.968 35.576 243.864 34.84 241.08 33.368C238.328 31.864 236.152 29.8 234.552 27.176C232.984 24.52 232.2 21.528 232.2 18.2C232.2 14.872 232.984 11.896 234.552 9.272C236.152 6.616 238.328 4.552 241.08 3.08C243.864 1.576 246.984 0.823999 250.44 0.823999C253.352 0.823999 255.976 1.336 258.312 2.36C260.68 3.384 262.664 4.856 264.264 6.776L259.272 11.384C257 8.76 254.184 7.448 250.824 7.448C248.744 7.448 246.888 7.912 245.256 8.84C243.624 9.736 242.344 11 241.416 12.632C240.52 14.264 240.072 16.12 240.072 18.2C240.072 20.28 240.52 22.136 241.416 23.768C242.344 25.4 243.624 26.68 245.256 27.608C246.888 28.504 248.744 28.952 250.824 28.952C254.184 28.952 257 27.624 259.272 24.968L264.264 29.576C262.664 31.528 260.68 33.016 258.312 34.04C255.944 35.064 253.304 35.576 250.392 35.576ZM290.987 27.8H275.387L272.411 35H264.443L279.419 1.4H287.099L302.123 35H293.963L290.987 27.8ZM288.539 21.896L283.211 9.032L277.883 21.896H288.539ZM327.017 35L320.537 25.64H320.153H313.385V35H305.609V1.4H320.153C323.129 1.4 325.705 1.896 327.881 2.888C330.089 3.88 331.785 5.288 332.969 7.112C334.153 8.936 334.745 11.096 334.745 13.592C334.745 16.088 334.137 18.248 332.921 20.072C331.737 21.864 330.041 23.24 327.833 24.2L335.369 35H327.017ZM326.873 13.592C326.873 11.704 326.265 10.264 325.049 9.272C323.833 8.248 322.057 7.736 319.721 7.736H313.385V19.448H319.721C322.057 19.448 323.833 18.936 325.049 17.912C326.265 16.888 326.873 15.448 326.873 13.592ZM363.61 17.672H370.714V31.304C368.89 32.68 366.778 33.736 364.378 34.472C361.978 35.208 359.562 35.576 357.13 35.576C353.642 35.576 350.506 34.84 347.722 33.368C344.938 31.864 342.746 29.8 341.146 27.176C339.578 24.52 338.794 21.528 338.794 18.2C338.794 14.872 339.578 11.896 341.146 9.272C342.746 6.616 344.954 4.552 347.77 3.08C350.586 1.576 353.754 0.823999 357.274 0.823999C360.218 0.823999 362.89 1.32 365.29 2.312C367.69 3.304 369.706 4.744 371.338 6.632L366.346 11.24C363.946 8.712 361.05 7.448 357.658 7.448C355.514 7.448 353.61 7.896 351.946 8.792C350.282 9.688 348.986 10.952 348.058 12.584C347.13 14.216 346.666 16.088 346.666 18.2C346.666 20.28 347.13 22.136 348.058 23.768C348.986 25.4 350.266 26.68 351.898 27.608C353.562 28.504 355.45 28.952 357.562 28.952C359.802 28.952 361.818 28.472 363.61 27.512V17.672Z" fill="#FCF54A"/>
<path d="M394.209 35.576C390.721 35.576 387.569 34.824 384.753 33.32C381.969 31.816 379.777 29.752 378.177 27.128C376.609 24.472 375.825 21.496 375.825 18.2C375.825 14.904 376.609 11.944 378.177 9.32C379.777 6.664 381.969 4.584 384.753 3.08C387.569 1.576 390.721 0.823999 394.209 0.823999C397.697 0.823999 400.833 1.576 403.617 3.08C406.401 4.584 408.593 6.664 410.193 9.32C411.793 11.944 412.593 14.904 412.593 18.2C412.593 21.496 411.793 24.472 410.193 27.128C408.593 29.752 406.401 31.816 403.617 33.32C400.833 34.824 397.697 35.576 394.209 35.576ZM394.209 28.952C396.193 28.952 397.985 28.504 399.585 27.608C401.185 26.68 402.433 25.4 403.329 23.768C404.257 22.136 404.721 20.28 404.721 18.2C404.721 16.12 404.257 14.264 403.329 12.632C402.433 11 401.185 9.736 399.585 8.84C397.985 7.912 396.193 7.448 394.209 7.448C392.225 7.448 390.433 7.912 388.833 8.84C387.233 9.736 385.969 11 385.041 12.632C384.145 14.264 383.697 16.12 383.697 18.2C383.697 20.28 384.145 22.136 385.041 23.768C385.969 25.4 387.233 26.68 388.833 27.608C390.433 28.504 392.225 28.952 394.209 28.952ZM419.804 35.384C418.492 35.384 417.388 34.936 416.492 34.04C415.596 33.144 415.148 32.024 415.148 30.68C415.148 29.304 415.596 28.2 416.492 27.368C417.388 26.504 418.492 26.072 419.804 26.072C421.116 26.072 422.22 26.504 423.116 27.368C424.012 28.2 424.46 29.304 424.46 30.68C424.46 32.024 424.012 33.144 423.116 34.04C422.22 34.936 421.116 35.384 419.804 35.384Z" fill="#4AFCFC"/>
</svg>
